<?xml version="1.0" encoding="UTF-8"?>
<svg id="Layer_2" data-name="Layer 2" xmlns="http://www.w3.org/2000/svg" viewBox="0 0 2054.75 2310.86">
  <defs>
    <style>
      .cls-1 {
        fill: #659ad2;
      }

      .cls-1, .cls-2, .cls-3, .cls-4 {
        stroke-width: 0px;
      }

      .cls-2 {
        fill: #004482;
      }

      .cls-3 {
        fill: #00599c;
      }

      .cls-4 {
        fill: #fff;
      }
    </style>
  </defs>
  <g id="Layer_1-2" data-name="Layer 1">
    <path class="cls-2" d="M2053.96,679.43c.79-35.83-7.84-71.24-25.03-102.68-17.82-30.4-43.5-55.43-74.34-72.45-273.44-157.88-546.97-315.54-820.6-472.98-73.68-42.6-145.1-41.09-218.3,2.17-108.82,63.95-653.78,376.53-816.16,470.71C32.64,542.93.14,602.25.14,679.33v952.19c-.69,35.07,7.6,69.74,24.09,100.7,17.82,31.32,43.98,57.09,75.57,74.44,162.38,94.46,707.43,406.66,816.26,470.9,73.21,43.26,144.62,44.78,218.4,2.17,273.38-157.94,546.91-315.66,820.6-473.17,31.59-17.35,57.75-43.11,75.57-74.44,16.49-30.96,24.78-65.63,24.09-100.7v-952h-.76Z"/>
    <path class="cls-3" d="M2054.15,1631.52c.71,35.07-7.58,69.74-24.09,100.7-4.05,7.37-8.63,14.44-13.7,21.16l-989.31-597.95,927.53-651.13c30.82,17.03,56.47,42.06,74.25,72.45,17.26,31.42,25.93,66.84,25.13,102.68.19,317.4.19,952.09.19,952.09h0Z"/>
    <path class="cls-1" d="M2028.83,576.75L23.95,1732.22C7.53,1701.27-.69,1666.64.05,1631.62v-952.28c0-77.08,32.59-136.4,99.38-175.13C261.9,410.02,806.86,97.44,915.77,33.3c73.02-43.26,144.53-44.78,218.21-2.17,273.38,157.94,546.91,315.66,820.6,473.17,30.82,17.03,56.47,42.06,74.25,72.45Z"/>
    <path class="cls-4" d="M1066.72,1540.08c-137.5.19-264.2-74.49-330.62-194.88-3.34-5.92-6.49-11.97-9.45-18.14-90.81-187.54-12.39-413.19,175.15-503.99,156.81-75.93,345.22-34.61,455.86,99.98,5.01,6.05,9.45,12.37,14.45,18.89,2.27,3.12,4.53,6.23,6.61,9.45l331.28-190.82c-8.06-12.97-16.5-25.57-25.32-37.79-4.63-6.52-9.45-12.75-13.98-18.89-254.26-330.31-728.16-391.97-1058.47-137.7-290.19,223.37-378.16,622.83-208.66,947.44,3.21,6.05,6.52,12,9.45,17.95,205.57,362.69,666.23,490.06,1028.92,284.5,107.06-60.68,197.65-146.61,263.9-250.3l-323.91-195.82c-69.67,106.23-188.18,170.2-315.22,170.13h0Z"/>
  </g>
</svg>