<?xml version="1.0" encoding="UTF-8"?>
<svg id="Layer_2" data-name="Layer 2" xmlns="http://www.w3.org/2000/svg" viewBox="0 0 700 463.2">
  <defs>
    <style>
      .cls-1 {
        fill: #80bc00;
        stroke-width: 0px;
      }
    </style>
  </defs>
  <g id="Layer_1-2" data-name="Layer 1">
    <path class="cls-1" d="M261.17,138.23v-41.85c4.08-.3,8.17-.5,12.35-.65,114.42-3.57,189.52,98.35,189.52,98.35,0,0-81.1,112.53-168.05,112.53-11.5.06-22.92-1.78-33.82-5.42v-126.78c44.55,5.38,53.5,25,80.3,69.7l59.57-50.22c-28.93-34.9-71.48-55.68-116.8-57.03-7.71.04-15.41.5-23.08,1.38M261.17,0v62.5c4.1-.32,8.22-.6,12.35-.75,159.15-5.35,262.82,130.52,262.82,130.52,0,0-119.1,144.8-243.15,144.8-10.74,0-21.45-.94-32.03-2.8v38.63c8.85,1.13,17.76,1.71,26.68,1.73,115.45,0,198.95-58.95,279.8-128.75,13.37,10.75,68.28,36.85,79.55,48.3-76.88,64.35-256.02,116.23-357.5,116.23-9.8,0-19.23-.6-28.45-1.5v54.3h438.75V0h-438.83ZM261.17,301.28v33c-106.77-19.05-136.42-130-136.42-130,36.75-36.73,84.82-59.98,136.42-66v36.18h-.15c-30.64-.37-59.84,12.98-79.6,36.4,0,0,19.55,70.27,79.75,90.5M71.53,199.43c45.68-59.76,114.65-97.24,189.65-103.05v-33.87C121.2,73.73,0,192.27,0,192.27c0,0,68.65,198.48,261.17,216.62v-36c-141.17-17.77-189.65-173.47-189.65-173.47Z"/>
  </g>
</svg>