<?xml version="1.0" encoding="UTF-8"?>
<svg id="Layer_2" data-name="Layer 2" xmlns="http://www.w3.org/2000/svg" xmlns:xlink="http://www.w3.org/1999/xlink" viewBox="0 0 218.37 91.21">
  <defs>
    <style>
      .cls-1 {
        clip-path: url(#clippath-2);
      }

      .cls-2 {
        fill: #362701;
      }

      .cls-2, .cls-3, .cls-4 {
        stroke-width: 0px;
      }

      .cls-3 {
        fill: none;
      }

      .cls-5 {
        clip-path: url(#clippath-1);
      }

      .cls-4 {
        fill: #f03c2e;
      }

      .cls-6 {
        clip-path: url(#clippath);
      }
    </style>
    <clipPath id="clippath">
      <rect class="cls-3" x="159" width="25" height="68.21"/>
    </clipPath>
    <clipPath id="clippath-1">
      <rect class="cls-3" x="183" y="8.21" width="35.37" height="60"/>
    </clipPath>
    <clipPath id="clippath-2">
      <rect class="cls-3" width="92" height="91.21"/>
    </clipPath>
  </defs>
  <g id="Layer_1-2" data-name="Layer 1">
    <path class="cls-2" d="M130.87,31.05c-4.79,0-8.35,2.35-8.35,8.01,0,4.26,2.35,7.22,8.09,7.22,4.87,0,8.18-2.87,8.18-7.4,0-5.13-2.96-7.83-7.92-7.83ZM121.3,71c-1.13,1.39-2.26,2.87-2.26,4.61,0,3.48,4.43,4.52,10.53,4.52,5.05,0,11.93-.35,11.93-5.04,0-2.79-3.31-2.96-7.49-3.23l-12.7-.87ZM147.06,31.31c1.56,2,3.22,4.79,3.22,8.79,0,9.66-7.57,15.32-18.54,15.32-2.79,0-5.31-.35-6.88-.78l-2.87,4.61,8.53.52c15.06.96,23.93,1.4,23.93,12.97,0,10.01-8.79,15.67-23.93,15.67s-21.76-4-21.76-10.88c0-3.92,1.74-6,4.79-8.88-2.88-1.21-3.83-3.39-3.83-5.74,0-1.91.95-3.66,2.52-5.31,1.57-1.65,3.31-3.31,5.39-5.22-4.26-2.09-7.49-6.62-7.49-13.06,0-10.01,6.61-16.88,19.93-16.88,3.74,0,6,.34,8.01.87h16.97v7.39l-8.01.61"/>
    <g class="cls-6">
      <path class="cls-2" d="M170.38,15.49c-4.96,0-7.83-2.87-7.83-7.84S165.42,0,170.38,0s7.92,2.7,7.92,7.66-2.87,7.84-7.92,7.84ZM159.15,67.8v-6.88l4.44-.61c1.22-.17,1.39-.44,1.39-1.75v-25.59c0-.95-.26-1.57-1.13-1.82l-4.7-1.66.96-7.05h18.02v36.11c0,1.4.09,1.57,1.4,1.75l4.44.61v6.88h-24.8"/>
    </g>
    <g class="cls-5">
      <path class="cls-2" d="M218.37,64.42c-3.74,1.82-9.22,3.48-14.19,3.48-10.36,0-14.27-4.18-14.27-14.01v-22.8c0-.52,0-.87-.7-.87h-6.09v-7.75c7.66-.87,10.71-4.7,11.66-14.19h8.27v12.36c0,.61,0,.87.7.87h12.27v8.7h-12.96v20.8c0,5.14,1.22,7.14,5.92,7.14,2.44,0,4.96-.61,7.05-1.39l2.35,7.66"/>
    </g>
    <g class="cls-1">
      <path class="cls-4" d="M89.42,41.58L49.63,1.79c-2.29-2.29-6.01-2.29-8.3,0,0,0,0,0,0,0l-8.26,8.26,10.48,10.48c2.51-.86,5.3-.21,7.17,1.67,1.89,1.89,2.53,4.69,1.66,7.22l10.1,10.1c2.52-.88,5.33-.23,7.21,1.66,2.73,2.72,2.73,7.14,0,9.87,0,0,0,0,0,0-2.72,2.73-7.14,2.73-9.87,0,0,0,0,0,0,0-1.99-1.99-2.59-4.99-1.52-7.59l-9.42-9.42v24.79c.68.34,1.31.78,1.85,1.32,2.73,2.73,2.73,7.15,0,9.88-2.73,2.73-7.15,2.73-9.88,0-2.73-2.72-2.73-7.14,0-9.87,0,0,0,0,0,0,.65-.66,1.43-1.17,2.28-1.52v-25.02c-.86-.35-1.63-.87-2.28-1.52-2.01-2-2.6-5.02-1.51-7.64l-10.33-10.34L1.72,41.4c-2.29,2.29-2.29,6.01,0,8.3,0,0,0,0,0,0l39.79,39.79c2.29,2.29,6.01,2.29,8.3,0,0,0,0,0,0,0l39.61-39.6c2.29-2.29,2.29-6.01,0-8.31"/>
    </g>
  </g>
</svg>