<?xml version="1.0" encoding="UTF-8" standalone="no"?>
<svg
   xmlns:dc="http://purl.org/dc/elements/1.1/"
   xmlns:cc="http://creativecommons.org/ns#"
   xmlns:rdf="http://www.w3.org/1999/02/22-rdf-syntax-ns#"
   xmlns:svg="http://www.w3.org/2000/svg"
   xmlns="http://www.w3.org/2000/svg"
   width="140mm"
   height="50mm"
   viewBox="0 0 496.06299 177.16536"
   id="svg2"
   version="1.1">
  <defs
     id="defs4" />
  <metadata
     id="metadata7">
    <rdf:RDF>
      <cc:Work
         rdf:about="">
        <dc:format>image/svg+xml</dc:format>
        <dc:type
           rdf:resource="http://purl.org/dc/dcmitype/StillImage" />
        <dc:title></dc:title>
      </cc:Work>
    </rdf:RDF>
  </metadata>
  <g
     id="layer1"
     transform="translate(-21.009766,-122.58486)">
    <g
       style="font-style:normal;font-variant:normal;font-weight:600;font-stretch:normal;font-size:5px;line-height:50%;font-family:'Segoe UI';-inkscape-font-specification:'Segoe UI, Semi-Bold';text-align:start;letter-spacing:0px;word-spacing:0px;writing-mode:lr-tb;text-anchor:start;fill:#000000;fill-opacity:1;stroke:none;stroke-width:1px;stroke-linecap:butt;stroke-linejoin:miter;stroke-opacity:1"
       id="flowRoot4136"
       transform="translate(4.5127304,-39.486391)">
      <path
         d="m 21.009766,255.96115 q 0,-14.25781 7.65625,-22.30469 7.65625,-8.08594 19.765625,-8.08594 7.929687,0 14.296875,3.78907 6.367187,3.78906 9.6875,10.58593 3.359375,6.75782 3.359375,15.35157 0,8.71093 -3.515625,15.58593 -3.515625,6.875 -9.960938,10.42969 -6.445312,3.51563 -13.90625,3.51563 -8.085937,0 -14.453125,-3.90625 -6.367187,-3.90625 -9.648437,-10.66407 -3.28125,-6.75781 -3.28125,-14.29687 z m 7.8125,0.11719 q 0,10.35156 5.546875,16.32812 5.585937,5.9375 13.984375,5.9375 8.554687,0 14.0625,-6.01562 5.546875,-6.01563 5.546875,-17.07032 0,-6.99218 -2.382813,-12.1875 -2.34375,-5.23437 -6.914062,-8.08593 -4.53125,-2.89063 -10.195313,-2.89063 -8.046875,0 -13.867187,5.54688 -5.78125,5.50781 -5.78125,18.4375 z"
         style="font-style:normal;font-variant:normal;font-weight:normal;font-stretch:normal;font-size:80px;line-height:50%;font-family:Arial;-inkscape-font-specification:Arial;text-align:start;writing-mode:lr-tb;text-anchor:start"
         id="path4149" />
      <path
         d="m 84.603516,299.75021 0,-57.38281 6.40625,0 0,5.39062 q 2.265625,-3.16406 5.117187,-4.72656 2.851563,-1.60156 6.914067,-1.60156 5.3125,0 9.375,2.73437 4.0625,2.73438 6.13281,7.73438 2.07031,4.96094 2.07031,10.89844 0,6.36718 -2.30469,11.48437 -2.26562,5.07813 -6.64062,7.8125 -4.33594,2.69531 -9.14063,2.69531 -3.515622,0 -6.328122,-1.48437 -2.773437,-1.48438 -4.570312,-3.75 l 0,20.19531 -7.03125,0 z m 6.367187,-36.40625 q 0,8.00781 3.242188,11.83594 3.242187,3.82812 7.851559,3.82812 4.6875,0 8.00782,-3.94531 3.35937,-3.98437 3.35937,-12.30469 0,-7.92968 -3.28125,-11.875 -3.24219,-3.94531 -7.77344,-3.94531 -4.492184,0 -7.968747,4.21875 -3.4375,4.17969 -3.4375,12.1875 z"
         style="font-style:normal;font-variant:normal;font-weight:normal;font-stretch:normal;font-size:80px;line-height:50%;font-family:Arial;-inkscape-font-specification:Arial;text-align:start;writing-mode:lr-tb;text-anchor:start"
         id="path4151" />
      <path
         d="m 157.5332,270.4924 7.26563,0.89844 q -1.71875,6.36718 -6.36719,9.88281 -4.64844,3.51562 -11.875,3.51562 -9.10156,0 -14.45312,-5.58593 -5.3125,-5.625 -5.3125,-15.74219 0,-10.46875 5.39062,-16.25 5.39063,-5.78125 13.98438,-5.78125 8.32031,0 13.59375,5.66406 5.27343,5.66406 5.27343,15.9375 0,0.625 -0.0391,1.875 l -30.9375,0 q 0.39063,6.83594 3.86719,10.46875 3.47656,3.63281 8.67187,3.63281 3.86719,0 6.60157,-2.03125 2.73437,-2.03125 4.33593,-6.48437 z m -23.08593,-11.36719 23.16406,0 q -0.46875,-5.23437 -2.65625,-7.85156 -3.35938,-4.0625 -8.71094,-4.0625 -4.84375,0 -8.16406,3.24219 -3.28125,3.24218 -3.63281,8.67187 z"
         style="font-style:normal;font-variant:normal;font-weight:normal;font-stretch:normal;font-size:80px;line-height:50%;font-family:Arial;-inkscape-font-specification:Arial;text-align:start;writing-mode:lr-tb;text-anchor:start"
         id="path4153" />
      <path
         d="m 173.66602,283.85177 0,-41.48437 6.32812,0 0,5.89844 q 4.57031,-6.83594 13.20313,-6.83594 3.75,0 6.875,1.36719 3.16406,1.32812 4.72656,3.51562 1.5625,2.1875 2.1875,5.19531 0.39062,1.95313 0.39062,6.83594 l 0,25.50781 -7.03125,0 0,-25.23437 q 0,-4.29688 -0.82031,-6.40625 -0.82031,-2.14844 -2.92969,-3.39844 -2.07031,-1.28906 -4.88281,-1.28906 -4.49219,0 -7.77344,2.85156 -3.24218,2.85156 -3.24218,10.82031 l 0,22.65625 -7.03125,0 z"
         style="font-style:normal;font-variant:normal;font-weight:normal;font-stretch:normal;font-size:80px;line-height:50%;font-family:Arial;-inkscape-font-specification:Arial;text-align:start;writing-mode:lr-tb;text-anchor:start"
         id="path4155" />
      <path
         d="m 286.04883,283.85177 0,-57.26562 38.63281,0 0,6.75781 -31.05469,0 0,17.73438 26.875,0 0,6.75781 -26.875,0 0,26.01562 -7.57812,0 z"
         style="font-style:normal;font-variant:normal;font-weight:normal;font-stretch:normal;font-size:80px;line-height:50%;font-family:Arial;-inkscape-font-specification:Arial;text-align:start;writing-mode:lr-tb;text-anchor:start"
         id="path4157" />
      <path
         d="m 332.25977,255.96115 q 0,-14.25781 7.65625,-22.30469 7.65625,-8.08594 19.76562,-8.08594 7.92969,0 14.29688,3.78907 6.36718,3.78906 9.6875,10.58593 3.35937,6.75782 3.35937,15.35157 0,8.71093 -3.51562,15.58593 -3.51563,6.875 -9.96094,10.42969 -6.44531,3.51563 -13.90625,3.51563 -8.08594,0 -14.45313,-3.90625 -6.36718,-3.90625 -9.64843,-10.66407 -3.28125,-6.75781 -3.28125,-14.29687 z m 7.8125,0.11719 q 0,10.35156 5.54687,16.32812 5.58594,5.9375 13.98438,5.9375 8.55468,0 14.0625,-6.01562 5.54687,-6.01563 5.54687,-17.07032 0,-6.99218 -2.38281,-12.1875 -2.34375,-5.23437 -6.91406,-8.08593 -4.53125,-2.89063 -10.19532,-2.89063 -8.04687,0 -13.86718,5.54688 -5.78125,5.50781 -5.78125,18.4375 z"
         style="font-style:normal;font-variant:normal;font-weight:normal;font-stretch:normal;font-size:80px;line-height:50%;font-family:Arial;-inkscape-font-specification:Arial;text-align:start;writing-mode:lr-tb;text-anchor:start"
         id="path4159" />
      <path
         d="m 390.46289,283.85177 21.99219,-57.26562 8.16406,0 23.4375,57.26562 -8.63281,0 -6.67969,-17.34375 -23.94531,0 -6.28906,17.34375 -8.04688,0 z m 16.52344,-23.51562 19.41406,0 -5.97656,-15.85938 q -2.73438,-7.22656 -4.0625,-11.875 -1.09375,5.50782 -3.08594,10.9375 l -6.28906,16.79688 z"
         style="font-style:normal;font-variant:normal;font-weight:normal;font-stretch:normal;font-size:80px;line-height:50%;font-family:Arial;-inkscape-font-specification:Arial;text-align:start;writing-mode:lr-tb;text-anchor:start"
         id="path4161" />
      <path
         d="m 449.95508,283.85177 0,-57.26562 11.40625,0 13.55469,40.54687 q 1.875,5.66407 2.73437,8.47657 0.97656,-3.125 3.04688,-9.17969 l 13.71093,-39.84375 10.19532,0 0,57.26562 -7.30469,0 0,-47.92968 -16.64063,47.92968 -6.83593,0 -16.5625,-48.75 0,48.75 -7.30469,0 z"
         style="font-style:normal;font-variant:normal;font-weight:normal;font-stretch:normal;font-size:80px;line-height:50%;font-family:Arial;-inkscape-font-specification:Arial;text-align:start;writing-mode:lr-tb;text-anchor:start"
         id="path4163" />
    </g>
    <path
       style="fill:#0000ff;fill-rule:evenodd;stroke:none;stroke-width:1px;stroke-linecap:butt;stroke-linejoin:miter;stroke-opacity:1"
       d="m 203.00977,162.75021 43,85 6,0 41,-85 z m 14,8 34,69 34,-69 z"
       id="path4144" />
  </g>
</svg>
