<?xml version="1.0" encoding="UTF-8"?>
<svg id="Layer_1" data-name="Layer 1" xmlns="http://www.w3.org/2000/svg" viewBox="0 0 450 175">
  <defs>
    <style>
      .cls-1 {
        fill: #046530;
        stroke-width: 0px;
      }
    </style>
  </defs>
  <path class="cls-1" d="M177.27,107.6c.39,3.49,1.75,6.27,4.2,8.27,2.39,2,5.49,3.04,9.31,3.04,2.52,0,4.78-.52,6.79-1.55,2-1.1,3.62-2.52,4.78-4.46h12.15c-2.07,5.3-5.11,9.37-9.24,12.35-4.07,2.91-8.85,4.4-14.22,4.4-3.62,0-6.92-.65-9.95-1.94-3.04-1.29-5.75-3.17-8.21-5.69-2.26-2.39-4.07-5.11-5.3-8.27-1.23-3.17-1.88-6.33-1.88-9.63s.58-6.59,1.75-9.57c1.16-2.97,2.84-5.69,5.11-8.08,2.46-2.65,5.3-4.65,8.4-6.01,3.1-1.42,6.33-2.13,9.63-2.13,4.2,0,8.14.97,11.76,2.84,3.62,1.94,6.72,4.59,9.31,8.08,1.55,2.07,2.71,4.4,3.49,7.05.78,2.59,1.1,5.56,1.1,8.92,0,.26,0,.65-.07,1.23,0,.58-.06.97-.06,1.23h-38.85v-.06ZM204.09,98.62c-.97-3.23-2.59-5.69-4.85-7.37-2.26-1.68-5.17-2.52-8.6-2.52-3.04,0-5.69.9-8.08,2.71-2.39,1.81-4.01,4.2-4.85,7.17h26.37ZM243.33,89.57c-4.4.32-7.43,1.49-9.18,3.43-1.74,1.94-2.58,5.43-2.58,10.47v24.76h-11.31v-48.48h10.6v5.62c1.68-2.2,3.55-3.75,5.62-4.78,2-1.03,4.33-1.55,6.85-1.55v10.54ZM137.32,39.67c-13.7-5.36-63.28-7.3-63.34,22.3-14.48,9.24-24.04,24.3-24.04,40.46,0,19.52,15.84,35.36,35.36,35.36s35.36-15.84,35.36-35.36c0-15.06-9.44-27.99-22.75-33.03-2.59-.97-8.14-2.71-12.54-2.33-6.33,4.01-14.09,12.28-17.71,20.55,5.43-6.53,13.9-9.37,21.46-8.14,11.05,1.81,19.52,11.38,19.52,23.01,0,12.86-10.41,23.27-23.27,23.27-7.11,0-13.44-3.17-17.71-8.14-6.4-7.43-8.01-15.45-6.72-23.27,4.46-27.41,36.97-42.98,61.15-48.99-7.89,4.2-22.11,11.05-32.06,18.49,29.02,11.25,33.74-13.25,47.31-24.17ZM149.09,128.28h-8.85l-18.42-48.54h12.02l11.31,32.25,11.63-32.25h11.7l-19.39,48.54Z"/>
  <path class="cls-1" d="M275.25,107.6c.39,3.49,1.81,6.27,4.2,8.27,2.39,2,5.49,3.04,9.31,3.04,2.52,0,4.78-.52,6.79-1.55,2-1.1,3.62-2.52,4.78-4.46h12.15c-2.07,5.3-5.11,9.37-9.24,12.35-4.07,2.91-8.85,4.4-14.22,4.4-3.62,0-6.92-.65-9.95-1.94-3.04-1.29-5.75-3.17-8.21-5.69-2.26-2.39-4.07-5.11-5.3-8.27-1.29-3.1-1.88-6.33-1.88-9.63s.58-6.59,1.74-9.57c1.16-2.97,2.84-5.69,5.11-8.08,2.46-2.65,5.3-4.65,8.4-6.01,3.1-1.42,6.33-2.13,9.63-2.13,4.2,0,8.14.97,11.76,2.84,3.62,1.94,6.72,4.59,9.31,8.08,1.55,2.07,2.71,4.4,3.49,7.05.78,2.59,1.1,5.56,1.1,8.92,0,.26,0,.65-.07,1.23,0,.58-.06.97-.06,1.23h-38.85v-.06ZM302.01,98.62c-.97-3.23-2.59-5.69-4.85-7.37-2.26-1.68-5.17-2.52-8.6-2.52-3.04,0-5.69.9-8.08,2.71-2.39,1.81-4.01,4.2-4.85,7.17h26.37ZM359.02,128.28v-5.95c-1.36,2.39-3.23,4.2-5.69,5.36-2.46,1.16-5.62,1.75-9.44,1.75-7.17,0-13.19-2.46-17.97-7.37-4.78-4.91-7.24-10.99-7.24-18.23,0-3.43.58-6.66,1.81-9.7,1.23-3.04,2.91-5.75,5.17-8.08,2.39-2.59,5.11-4.46,8.02-5.69,2.91-1.23,6.27-1.81,9.95-1.81s6.59.58,9.11,1.75c2.52,1.16,4.59,2.97,6.14,5.36v-5.88h10.99v48.54h-10.86v-.06ZM330.26,103.59c0,4.07,1.36,7.5,4.07,10.28,2.71,2.78,6.01,4.14,9.95,4.14,3.55,0,6.66-1.36,9.37-4.14,2.71-2.78,4.07-6.01,4.07-9.7,0-3.94-1.36-7.3-4.07-10.15-2.71-2.84-5.88-4.27-9.57-4.27s-7.05,1.36-9.76,4.01c-2.71,2.71-4.07,5.95-4.07,9.82ZM400,79.74v10.08h-8.14v38.46h-10.92v-38.46h-5.75v-10.08h5.43v-1.29c0-5.11,1.42-8.92,4.2-11.44,2.84-2.52,7.11-3.75,12.86-3.75.19,0,.58,0,1.1.06.52,0,.9.06,1.23.06v10.15h-.78c-2.58,0-4.39.45-5.49,1.23-1.1.84-1.68,2.2-1.68,4.2v.9h7.95v-.13ZM248.23,128.28h11.05v-64.25h-11.05v64.25Z"/>
</svg>