<?xml version="1.0" encoding="UTF-8"?>
<svg id="Layer_2" data-name="Layer 2" xmlns="http://www.w3.org/2000/svg" xmlns:xlink="http://www.w3.org/1999/xlink" viewBox="0 0 474.8 137.8">
  <defs>
    <style>
      .cls-1 {
        fill: #646464;
      }

      .cls-1, .cls-2, .cls-3, .cls-4 {
        stroke-width: 0px;
      }

      .cls-2 {
        fill: url(#radial-gradient);
        isolation: isolate;
        opacity: .44;
      }

      .cls-3 {
        fill: url(#linear-gradient);
      }

      .cls-4 {
        fill: url(#linear-gradient-2);
      }
    </style>
    <linearGradient id="linear-gradient" x1="331.16" y1="-94.82" x2="440.17" y2="-188.61" gradientTransform="translate(-189.02 -47.52) scale(.56 -.57)" gradientUnits="userSpaceOnUse">
      <stop offset="0" stop-color="#5a9fd4"/>
      <stop offset="1" stop-color="#306998"/>
    </linearGradient>
    <linearGradient id="linear-gradient-2" x1="482.32" y1="-245.38" x2="443.39" y2="-190.3" gradientTransform="translate(-189.02 -47.52) scale(.56 -.57)" gradientUnits="userSpaceOnUse">
      <stop offset="0" stop-color="#ffd43b"/>
      <stop offset="1" stop-color="#ffe873"/>
    </linearGradient>
    <radialGradient id="radial-gradient" cx="-1353.46" cy="-160.55" fx="-1353.46" fy="-160.55" r="29.04" gradientTransform="translate(-113.51 -193.92) rotate(-90) scale(.24 -1.05)" gradientUnits="userSpaceOnUse">
      <stop offset="0" stop-color="#b8b8b8" stop-opacity=".5"/>
      <stop offset="1" stop-color="#7f7f7f" stop-opacity="0"/>
    </radialGradient>
  </defs>
  <g id="svg2">
    <g id="g2303">
      <path id="path46" class="cls-1" d="M179.02,58.67c0-14.56-4.15-22.04-12.46-22.45-3.3-.16-6.53.37-9.67,1.59-2.5.9-4.19,1.78-5.08,2.68v34.76c5.31,3.33,10.03,4.88,14.14,4.64,8.7-.58,13.06-7.64,13.06-21.22ZM189.27,59.27c0,7.4-1.73,13.54-5.22,18.42-3.89,5.53-9.28,8.37-16.17,8.53-5.2.17-10.55-1.46-16.05-4.87v31.59l-8.91-3.18V39.64c1.46-1.79,3.34-3.33,5.62-4.64,5.3-3.09,11.75-4.68,19.33-4.76l.13.13c6.93-.09,12.27,2.76,16.02,8.53,3.5,5.29,5.25,12.08,5.25,20.37Z"/>
      <path id="path48" class="cls-1" d="M243.71,80c0,9.92-.99,16.79-2.98,20.62-2,3.82-5.8,6.87-11.41,9.14-4.55,1.79-9.47,2.77-14.76,2.93l-1.47-5.61c5.37-.73,9.15-1.46,11.35-2.19,4.32-1.46,7.28-3.7,8.91-6.71,1.31-2.45,1.95-7.12,1.95-14.03v-2.32c-6.09,2.77-12.48,4.14-19.15,4.14-4.39,0-8.26-1.37-11.59-4.14-3.74-3.01-5.61-6.83-5.61-11.46v-37.08l8.91-3.05v37.32c0,3.99,1.29,7.06,3.86,9.21,2.57,2.15,5.91,3.19,9.99,3.11,4.08-.09,8.46-1.67,13.11-4.76V31.59h8.91v48.41Z"/>
      <path id="path50" class="cls-1" d="M278.49,85.74c-1.06.09-2.04.13-2.93.13-5.04,0-8.97-1.2-11.77-3.61-2.8-2.41-4.2-5.73-4.2-9.97v-35.09h-6.1v-5.6h6.1v-14.88l8.9-3.17v18.05h10.01v5.6h-10.01v34.85c0,3.34.9,5.71,2.69,7.1,1.54,1.14,3.99,1.79,7.32,1.96v4.64Z"/>
      <path id="path52" class="cls-1" d="M332.43,85h-8.91v-34.39c0-3.5-.82-6.51-2.45-9.03-1.88-2.85-4.49-4.27-7.85-4.27-4.08,0-9.19,2.15-15.32,6.46v41.22h-8.91V2.81l8.91-2.81v37.44c5.69-4.14,11.91-6.22,18.67-6.22,4.72,0,8.54,1.59,11.46,4.76,2.93,3.17,4.4,7.12,4.4,11.83v37.19h0Z"/>
      <path id="path54" class="cls-1" d="M379.78,57.26c0-5.59-1.06-10.21-3.18-13.87-2.51-4.45-6.42-6.8-11.71-7.05-9.77.57-14.64,7.56-14.64,20.98,0,6.15,1.01,11.29,3.06,15.41,2.61,5.25,6.53,7.85,11.76,7.76,9.81-.08,14.71-7.82,14.71-23.23ZM389.54,57.32c0,7.96-2.04,14.59-6.1,19.88-4.47,5.93-10.65,8.9-18.54,8.9s-13.91-2.97-18.31-8.9c-3.99-5.29-5.97-11.92-5.97-19.88,0-7.49,2.15-13.78,6.46-18.91,4.55-5.44,10.54-8.17,17.93-8.17s13.42,2.73,18.06,8.17c4.31,5.13,6.46,11.42,6.46,18.91Z"/>
      <path id="path56" class="cls-1" d="M440.61,85h-8.91v-36.34c0-3.99-1.2-7.1-3.6-9.34-2.4-2.23-5.59-3.31-9.58-3.23-4.23.08-8.26,1.46-12.08,4.14v44.76h-8.91v-45.86c5.13-3.73,9.84-6.17,14.15-7.31,4.06-1.06,7.65-1.59,10.74-1.59,2.12,0,4.1.2,5.97.61,3.5.81,6.35,2.31,8.54,4.51,2.45,2.44,3.66,5.36,3.66,8.78v40.85Z"/>
      <path id="path1948" class="cls-3" d="M54.92,3.14c-4.58.02-8.96.41-12.81,1.09-11.35,2-13.41,6.2-13.41,13.94v10.22h26.81v3.41H18.64c-7.79,0-14.62,4.68-16.75,13.59-2.46,10.21-2.57,16.59,0,27.25,1.91,7.94,6.46,13.59,14.25,13.59h9.22v-12.25c0-8.85,7.66-16.66,16.75-16.66h26.78c7.45,0,13.41-6.14,13.41-13.62v-25.53c0-7.27-6.13-12.72-13.41-13.94-4.61-.77-9.39-1.12-13.97-1.09ZM40.42,11.36c2.77,0,5.03,2.3,5.03,5.12s-2.26,5.09-5.03,5.09-5.03-2.28-5.03-5.09,2.25-5.12,5.03-5.12Z"/>
      <path id="path1950" class="cls-4" d="M85.64,31.79v11.91c0,9.23-7.83,17-16.75,17h-26.78c-7.34,0-13.41,6.28-13.41,13.62v25.53c0,7.27,6.32,11.54,13.41,13.62,8.49,2.5,16.63,2.95,26.78,0,6.75-1.95,13.41-5.89,13.41-13.62v-10.22h-26.78v-3.41h40.19c7.79,0,10.7-5.44,13.41-13.59,2.8-8.4,2.68-16.48,0-27.25-1.93-7.76-5.6-13.59-13.41-13.59h-10.06ZM70.58,96.45c2.78,0,5.03,2.28,5.03,5.09s-2.25,5.12-5.03,5.12-5.03-2.3-5.03-5.12,2.26-5.09,5.03-5.09Z"/>
      <path id="text3004" class="cls-1" d="M457.96,23.65h1.56v-9.8h3.7v-1.17h-8.96v1.17h3.7v9.8M464.61,23.65h1.33v-8.95l2.9,8.95h1.49l3.02-8.92v8.92h1.46v-10.96h-1.93l-3.3,9.39-2.81-9.39h-2.15v10.96"/>
      <path id="path1894" class="cls-2" d="M91.75,130.84c0,3.85-16.09,6.97-35.93,6.97s-35.93-3.12-35.93-6.97c0-3.85,16.09-6.97,35.93-6.97s35.93,3.12,35.93,6.97Z"/>
    </g>
  </g>
</svg>